<svg xmlns="http://www.w3.org/2000/svg" width='24px' viewBox="0 0 26 26">
  <path d="M2 4C1.398438 4 1 4.398438 1 5L1 19L7 19L7 17L13 17L13.59375 18L13 19L25 19L25 5C25 4.398438 24.601563 4 24 4 Z M 20.0625 7.21875C20.261719 7.242188 20.445313 7.351563 20.59375 7.5C20.792969 7.898438 20.800781 8.292969 20.5 8.59375L15.5 12.59375C15.300781 12.792969 15.011719 12.789063 14.8125 12.6875L10 10.8125L6.3125 12.59375C6.210938 12.695313 6.101563 12.6875 6 12.6875C5.699219 12.6875 5.511719 12.511719 5.3125 12.3125C5.113281 11.914063 5.292969 11.511719 5.59375 11.3125L9.59375 9.3125C9.792969 9.210938 9.988281 9.210938 10.1875 9.3125L14.8125 11.09375L19.5 7.40625C19.648438 7.257813 19.863281 7.195313 20.0625 7.21875 Z M 1.09375 20C0.492188 20 0 20.492188 0 21.09375L0 23L26 23L26 21.09375C26 20.492188 25.507813 20 24.90625 20Z" fill="#FFFFFF" />
</svg>