<svg xmlns="http://www.w3.org/2000/svg" width='24px' viewBox="0 0 26 26">
  <path d="M9 0C7.3550302 0 6 1.3550302 6 3L6 13L5 13 A 1 1 0 0 0 4 14 A 1 1 0 0 0 5 15L21 15 A 1 1 0 0 0 22 14 A 1 1 0 0 0 21 13L20 13L20 3C20 1.3550302 18.64497 0 17 0L9 0 z M 9 2L10 2L10 13L8 13L8 3C8 2.4349698 8.4349698 2 9 2 z M 13 2L17 2C17.56503 2 18 2.4349698 18 3L18 13L13 13L13 2 z M 3 3C1.34 3 0 4.34 0 6L0 18C0 19.66 1.34 21 3 21L10 21L10 22C10 22.55 10.45 23 11 23L15 23C15.55 23 16 22.48 16 22L16 21L23 21C24.66 21 26 19.66 26 18L26 6C26 4.34 24.66 3 23 3L21 3L21 5L23 5C23.55 5 24 5.45 24 6L24 16C24 16.55 23.55 17 23 17L3 17C2.45 17 2 16.55 2 16L2 6C2 5.45 2.45 5 3 5L5 5L5 3L3 3 z M 23.275391 18.275391C23.676391 18.275391 24 18.6 24 19C24 19.4 23.676391 19.724609 23.275391 19.724609C22.876391 19.724609 22.550781 19.401 22.550781 19C22.550781 18.599 22.875391 18.275391 23.275391 18.275391 z M 6 24C5.449 24 5 25 5 25L5 26L21 26L21 25C21 24.449 20.551 24 20 24L6 24 z" fill="#FFFFFF" />
</svg>