<svg xmlns="http://www.w3.org/2000/svg" width='16px' viewBox="0 0 26 26">
  <path d="M5.875 9C5.652344 9.023438 5.441406 9.125 5.28125 9.28125L2.28125 12.28125C2.085938 12.46875 1.976563 12.730469 1.976563 13C1.976563 13.269531 2.085938 13.53125 2.28125 13.71875L5.28125 16.71875C5.679688 17.117188 6.320313 17.117188 6.71875 16.71875C7.117188 16.320313 7.117188 15.679688 6.71875 15.28125L5.4375 14L12 14C12.054688 13.992188 12.105469 13.984375 12.15625 13.96875C12.589844 15.707031 14.125 17 16 17C18.210938 17 20 15.210938 20 13C20 10.789063 18.210938 9 16 9C14.136719 9 12.601563 10.277344 12.15625 12C12.105469 11.996094 12.050781 11.996094 12 12L5.4375 12L6.71875 10.71875C7.042969 10.417969 7.128906 9.941406 6.933594 9.546875C6.742188 9.148438 6.308594 8.929688 5.875 9Z" fill="#FFFFFF" />
</svg>