<svg xmlns="http://www.w3.org/2000/svg" width='24px' viewBox="0 0 26 26">
  <path d="M0.8125 2C0.335938 2.089844 -0.0078125 2.511719 0 3L0 23C0 23.550781 0.449219 24 1 24L25 24C25.550781 24 26 23.550781 26 23L26 3C26 2.449219 25.550781 2 25 2L1 2C0.96875 2 0.9375 2 0.90625 2C0.875 2 0.84375 2 0.8125 2 Z M 2 4L24 4L24 22L2 22 Z M 20.96875 6.0625C20.914063 6.070313 20.863281 6.078125 20.8125 6.09375C20.554688 6.152344 20.328125 6.308594 20.1875 6.53125L19.375 7.6875L18.90625 7.3125C18.464844 6.976563 17.835938 7.058594 17.5 7.5C17.164063 7.941406 17.246094 8.570313 17.6875 8.90625L19 9.90625C19.214844 10.066406 19.484375 10.132813 19.75 10.089844C20.011719 10.050781 20.25 9.90625 20.40625 9.6875L21.8125 7.6875C22.0625 7.378906 22.105469 6.953125 21.921875 6.601563C21.738281 6.246094 21.363281 6.035156 20.96875 6.0625 Z M 5 7L5 9L15 9L15 7 Z M 20.96875 11.0625C20.914063 11.070313 20.863281 11.078125 20.8125 11.09375C20.554688 11.152344 20.328125 11.308594 20.1875 11.53125L19.375 12.6875L18.90625 12.3125C18.464844 11.976563 17.835938 12.058594 17.5 12.5C17.164063 12.941406 17.246094 13.570313 17.6875 13.90625L19 14.90625C19.214844 15.066406 19.484375 15.132813 19.75 15.089844C20.011719 15.050781 20.25 14.90625 20.40625 14.6875L21.8125 12.6875C22.0625 12.378906 22.105469 11.953125 21.921875 11.601563C21.738281 11.246094 21.363281 11.035156 20.96875 11.0625 Z M 5 12L5 14L15 14L15 12 Z M 20.96875 16.0625C20.914063 16.070313 20.863281 16.078125 20.8125 16.09375C20.554688 16.152344 20.328125 16.308594 20.1875 16.53125L19.375 17.6875L18.90625 17.3125C18.464844 16.976563 17.835938 17.058594 17.5 17.5C17.164063 17.941406 17.246094 18.570313 17.6875 18.90625L19 19.90625C19.214844 20.066406 19.484375 20.132813 19.75 20.089844C20.011719 20.050781 20.25 19.90625 20.40625 19.6875L21.8125 17.6875C22.0625 17.378906 22.105469 16.953125 21.921875 16.601563C21.738281 16.246094 21.363281 16.035156 20.96875 16.0625 Z M 5 17L5 19L15 19L15 17Z" fill="#FFFFFF" />
</svg>