<svg xmlns="http://www.w3.org/2000/svg" width='24px' viewBox="0 0 26 26">
  <path d="M0.71875 0C0.167969 0.078125 -0.21875 0.589844 -0.140625 1.140625C-0.0625 1.691406 0.449219 2.078125 1 2L4.46875 2C5.042969 2 5.226563 2.113281 5.375 2.25C5.523438 2.386719 5.710938 2.65625 5.875 3.21875C6.210938 4.355469 10.5625 19.15625 10.5625 19.15625C10.570313 19.1875 10.582031 19.21875 10.59375 19.25C10.59375 19.25 11.703125 22 14.5 22L22.34375 22C22.4375 22.003906 22.535156 21.992188 22.625 21.96875C22.65625 21.960938 22.6875 21.949219 22.71875 21.9375C22.75 21.917969 22.78125 21.898438 22.8125 21.875C22.84375 21.867188 22.875 21.855469 22.90625 21.84375C23.019531 21.769531 23.113281 21.675781 23.1875 21.5625C23.210938 21.53125 23.230469 21.5 23.25 21.46875C23.417969 21.15625 23.402344 20.777344 23.21875 20.476563C23.03125 20.171875 22.699219 19.992188 22.34375 20L14.5 20C13.761719 20 13.238281 19.625 12.90625 19.25C12.742188 19.0625 12.640625 18.890625 12.5625 18.75C12.484375 18.609375 12.4375 18.5 12.4375 18.5C12.4375 18.496094 12.300781 18.070313 12.28125 18L20.40625 18C21.4375 18 21.902344 17.136719 22 16.8125L25.59375 9.09375C26.113281 7.851563 25.871094 6.277344 24.1875 6.0625L21.84375 1.375C21.660156 0.996094 21.261719 0.769531 20.84375 0.8125C20.746094 0.820313 20.652344 0.839844 20.5625 0.875L17.09375 2.25C17.027344 2.273438 16.964844 2.304688 16.90625 2.34375L15.1875 0.34375C14.972656 0.0898438 14.644531 -0.0390625 14.3125 0C14.070313 0.0351563 13.847656 0.15625 13.6875 0.34375L8.8125 6.03125C8.800781 6.042969 8.792969 6.050781 8.78125 6.0625C8.425781 4.855469 7.851563 2.902344 7.78125 2.65625C7.570313 1.941406 7.292969 1.269531 6.71875 0.75C6.144531 0.230469 5.351563 0 4.46875 0L1 0C0.96875 0 0.9375 0 0.90625 0C0.875 0 0.84375 0 0.8125 0C0.78125 0 0.75 0 0.71875 0 Z M 14.4375 2.53125L17.40625 6L11.46875 6 Z M 20.4375 3.09375L21.90625 6L20.03125 6L18.28125 3.9375 Z M 9.625 8.0625L13.84375 8.0625L13.84375 9.84375L10.1875 9.84375L9.71875 8.34375C9.6875 8.234375 9.636719 8.136719 9.625 8.0625 Z M 15.15625 8.0625L17.84375 8.0625L17.84375 9.84375L15.15625 9.84375 Z M 19.15625 8.0625L23.78125 8.0625C23.769531 8.132813 23.75 8.195313 23.71875 8.28125L23 9.84375L19.15625 9.84375 Z M 10.59375 11.15625L13.84375 11.15625L13.84375 12.84375L11.125 12.84375 Z M 15.15625 11.15625L17.84375 11.15625L17.84375 12.84375L15.15625 12.84375 Z M 19.15625 11.15625L22.375 11.15625L21.59375 12.84375L19.15625 12.84375 Z M 11.53125 14.15625L13.84375 14.15625L13.84375 15.9375L12.1875 15.9375C12.148438 15.9375 12.125 15.925781 12.09375 15.90625 Z M 15.15625 14.15625L17.84375 14.15625L17.84375 15.9375L15.15625 15.9375 Z M 19.15625 14.15625L21 14.15625L20.15625 15.9375L19.15625 15.9375 Z M 14 22.1875C13 22.1875 12.1875 23 12.1875 24C12.1875 25 13 25.8125 14 25.8125C15 25.8125 15.8125 25 15.8125 24C15.8125 23 15 22.1875 14 22.1875 Z M 20 22.1875C19.875 22.1875 19.742188 22.195313 19.625 22.21875C18.800781 22.386719 18.1875 23.125 18.1875 24C18.1875 25 19 25.8125 20 25.8125C21 25.8125 21.8125 25 21.8125 24C21.8125 23 21 22.1875 20 22.1875Z" fill="#FFFFFF" />
</svg>