<svg xmlns="http://www.w3.org/2000/svg" width='24px' viewBox="0 0 26 26">
  <path d="M8.5 0C7.121094 0 6 1.121094 6 2.5C6 3.878906 7.121094 5 8.5 5C9.878906 5 11 3.878906 11 2.5C11 1.121094 9.878906 0 8.5 0 Z M 2.59375 5.46875C2.304688 5.507813 2.054688 5.71875 1.90625 6.09375L0.09375 12C-0.105469 12.601563 0.1875 13.210938 0.6875 13.3125L1.90625 13.59375C2.40625 13.695313 2.898438 13.414063 3 12.8125L4.40625 6.8125C4.507813 6.3125 4.1875 5.789063 3.6875 5.6875L2.90625 5.5C2.804688 5.476563 2.691406 5.457031 2.59375 5.46875 Z M 6.1875 6C5.6875 6 5.5 6.59375 5.5 6.59375C5.101563 8.292969 4.101563 12.804688 4 13.40625C3.800781 14.40625 4.289063 15.207031 4.6875 15.90625C5.085938 16.507813 9.894531 24.101563 10.59375 25C11.195313 25.800781 11.789063 26.1875 12.6875 25.6875C13.386719 25.289063 13.304688 24.292969 12.90625 23.59375C12.507813 22.894531 7.59375 14.90625 7.59375 14.90625L8.59375 11.40625C8.59375 11.40625 9.199219 12.1875 9.5 12.6875C9.601563 12.886719 9.789063 12.988281 10.1875 13.1875C10.6875 13.386719 11.804688 14.105469 12.40625 14.40625C13.007813 14.707031 13.699219 14.789063 14 14.1875C14.300781 13.6875 13.90625 13.105469 13.40625 12.90625C12.90625 12.707031 10.8125 11.40625 10.8125 11.40625C10.8125 11.40625 9.695313 8.992188 9.09375 7.59375C8.492188 6.394531 8.113281 6 7.3125 6 Z M 21 7C19.894531 7 19 7.894531 19 9C19 10.105469 19.894531 11 21 11C22.105469 11 23 10.105469 23 9C23 7.894531 22.105469 7 21 7 Z M 17.09375 11.09375C16.792969 11.09375 16.507813 11.292969 16.40625 11.59375L15.09375 15.90625C14.894531 16.304688 15.101563 16.710938 15.5 16.8125L16.5 17C16.800781 17.101563 17.210938 16.800781 17.3125 16.5L18.3125 12.09375C18.414063 11.695313 18.113281 11.414063 17.8125 11.3125 Z M 19.3125 12C18.914063 12 18.8125 12.40625 18.8125 12.40625C18.511719 13.605469 17.914063 16.3125 17.8125 16.8125C17.710938 17.613281 18.011719 18.09375 18.3125 18.59375C18.613281 18.992188 22.09375 24.585938 22.59375 25.1875C23.09375 25.789063 23.492188 26.085938 24.09375 25.6875C24.59375 25.386719 24.613281 24.6875 24.3125 24.1875C24.011719 23.6875 20.40625 17.90625 20.40625 17.90625L21 15.90625L21.59375 16.8125C21.695313 17.011719 21.792969 16.988281 22.09375 17.1875C22.394531 17.386719 23.6875 17.988281 24.1875 18.1875C24.585938 18.386719 25.207031 18.492188 25.40625 18.09375C25.707031 17.695313 25.492188 17.292969 25.09375 17.09375L22.6875 15.90625C22.6875 15.90625 21.90625 14.085938 21.40625 13.1875C21.007813 12.289063 20.695313 12 20.09375 12 Z M 3.90625 17.1875L3.09375 20C3.09375 20 1.007813 23.011719 0.40625 23.8125C0.0078125 24.414063 -0.394531 25.210938 0.40625 25.8125C1.207031 26.414063 1.914063 25.59375 2.3125 25.09375C2.710938 24.695313 4.3125 22.414063 4.8125 21.8125C5.113281 21.414063 5.304688 21.113281 5.40625 20.8125C5.507813 20.613281 5.613281 20.40625 5.8125 19.90625 Z M 17.90625 19.40625L17.3125 21.5C17.3125 21.5 15.804688 23.710938 15.40625 24.3125C15.105469 24.8125 14.804688 25.289063 15.40625 25.6875C16.007813 26.1875 16.511719 25.585938 16.8125 25.1875C17.113281 24.886719 18.292969 23.210938 18.59375 22.8125C18.792969 22.511719 18.898438 22.292969 19 22.09375C19.101563 21.894531 19.210938 21.710938 19.3125 21.3125Z" fill="#FFFFFF" />
</svg>