<svg xmlns="http://www.w3.org/2000/svg" width='24px' viewBox="0 0 26 26">
  <path d="M13 0.15625C9.824219 0.15625 7.09375 2.296875 7.09375 6.40625C7.09375 9.089844 8.351563 11.816406 10 13.5C10.265625 14.199219 10.21875 14.722656 10.0625 15.09375C10.300781 15.417969 11.304688 16.4375 13 16.4375C14.628906 16.4375 15.617188 15.496094 15.90625 15.125C15.796875 14.761719 15.78125 14.257813 16.03125 13.5C17.667969 11.8125 18.90625 9.078125 18.90625 6.40625C18.90625 2.300781 16.175781 0.15625 13 0.15625 Z M 9 16C5.730469 17.21875 2.03125 19.359375 2.03125 21.46875L2.03125 22.28125C2.03125 25.226563 7.742188 25.875 13.03125 25.875C18.328125 25.875 23.96875 25.226563 23.96875 22.28125L23.96875 21.46875C23.96875 19.328125 20.34375 17.214844 16.96875 16.03125C16.96875 16.03125 15.96875 20.699219 14.65625 23.34375C14.191406 21.324219 13.34375 19.46875 13.34375 19.46875C13.34375 19.46875 14.4375 19.003906 14.4375 18.25C14.4375 17.320313 13 16.875 13 16.875C13 16.875 11.5625 17.1875 11.5625 18.25C11.5625 18.972656 12.65625 19.46875 12.65625 19.46875C12.65625 19.46875 11.808594 21.316406 11.34375 23.3125C10.023438 20.65625 9 16 9 16Z" fill="#FFFFFF" />
</svg>