<svg xmlns="http://www.w3.org/2000/svg" viewBox="0 0 26 26">
  <path d="M7.1875 0C4.832031 0 2.8125 1.625 2.3125 3.875C2.007813 5.1875 1.691406 6.714844 1.4375 8.03125C1.183594 9.347656 1 10.308594 1 11L1 25C1 25.601563 1.398438 26 2 26L5 26C5.601563 26 6 25.601563 6 25L6 23L20 23L20 25C20 25.601563 20.398438 26 21 26L24 26C24.601563 26 25 25.601563 25 25L25 11C25 10.308594 24.816406 9.363281 24.5625 8.0625C24.308594 6.761719 23.988281 5.230469 23.6875 3.875C23.1875 1.625 21.167969 0 18.8125 0 Z M 7.1875 2L18.8125 2C20.257813 2 21.417969 2.964844 21.71875 4.3125C22.015625 5.65625 22.347656 7.164063 22.59375 8.4375C22.839844 9.710938 23 10.890625 23 11L23 12L3 12L3 11C3 10.890625 3.160156 9.691406 3.40625 8.40625C3.652344 7.121094 3.984375 5.601563 4.28125 4.3125C4.582031 2.964844 5.742188 2 7.1875 2 Z M 5 16C6.101563 16 7 16.898438 7 18C7 19.101563 6.101563 20 5 20C3.898438 20 3 19.101563 3 18C3 16.898438 3.898438 16 5 16 Z M 21 16C22.101563 16 23 16.898438 23 18C23 19.101563 22.101563 20 21 20C19.898438 20 19 19.101563 19 18C19 16.898438 19.898438 16 21 16Z" fill="#FFFFFF" />
</svg>