<svg xmlns="http://www.w3.org/2000/svg" viewBox="0 0 26 26"><path d="M18 0.1875C13.683594 0.1875 10.1875 2.117188 10.1875 4.5C10.1875 6.882813 13.683594 8.8125 18 8.8125C22.316406 8.8125 25.8125 6.882813 25.8125 4.5C25.8125 2.117188 22.316406 0.1875 18 0.1875 Z M 25.8125 5.78125C25.8125 8.164063 22.316406 10.09375 18 10.09375C13.695313 10.09375 10.207031 8.183594 10.1875 5.8125C10.1875 6.71875 10.1875 7.5 10.1875 7.5C10.1875 8.519531 10.839844 9.449219 11.90625 10.1875C12.988281 10.484375 13.949219 10.890625 14.75 11.40625C15.742188 11.660156 16.835938 11.8125 18 11.8125C22.316406 11.8125 25.8125 9.882813 25.8125 7.5 Z M 25.8125 8.78125C25.8125 11.164063 22.316406 13.09375 18 13.09375C17.476563 13.09375 16.964844 13.054688 16.46875 13C16.863281 13.546875 17.136719 14.144531 17.25 14.78125C17.5 14.796875 17.746094 14.8125 18 14.8125C22.316406 14.8125 25.8125 12.882813 25.8125 10.5 Z M 8 11.1875C3.683594 11.1875 0.1875 13.117188 0.1875 15.5C0.1875 17.882813 3.683594 19.8125 8 19.8125C12.316406 19.8125 15.8125 17.882813 15.8125 15.5C15.8125 13.117188 12.316406 11.1875 8 11.1875 Z M 25.8125 11.78125C25.8125 14.164063 22.316406 16.09375 18 16.09375C17.75 16.09375 17.496094 16.074219 17.25 16.0625C17.238281 16.136719 17.234375 16.238281 17.21875 16.3125C17.269531 16.464844 17.3125 16.613281 17.3125 16.78125L17.3125 17.78125C17.539063 17.792969 17.765625 17.8125 18 17.8125C22.316406 17.8125 25.8125 15.882813 25.8125 13.5 Z M 25.8125 14.78125C25.8125 17.164063 22.316406 19.09375 18 19.09375C17.75 19.09375 17.496094 19.074219 17.25 19.0625C17.238281 19.136719 17.234375 19.238281 17.21875 19.3125C17.269531 19.460938 17.3125 19.613281 17.3125 19.78125L17.3125 20.78125C17.539063 20.792969 17.765625 20.8125 18 20.8125C22.316406 20.8125 25.8125 18.882813 25.8125 16.5 Z M 15.8125 16.78125C15.8125 19.164063 12.316406 21.09375 8 21.09375C3.695313 21.09375 0.207031 19.183594 0.1875 16.8125C0.1875 17.71875 0.1875 18.5 0.1875 18.5C0.1875 20.882813 3.683594 22.8125 8 22.8125C12.316406 22.8125 15.8125 20.882813 15.8125 18.5 Z M 15.8125 19.78125C15.8125 22.164063 12.316406 24.09375 8 24.09375C3.695313 24.09375 0.207031 22.183594 0.1875 19.8125C0.1875 20.71875 0.1875 21.5 0.1875 21.5C0.1875 23.882813 3.683594 25.8125 8 25.8125C12.316406 25.8125 15.8125 23.882813 15.8125 21.5Z" fill="#000" /></svg>