<svg xmlns="http://www.w3.org/2000/svg" viewBox="0 0 26 26"><path d="M11 4C9.707031 4 8.960938 4.777344 8.53125 5.53125C8.472656 5.492188 8.410156 5.460938 8.34375 5.4375C7.703125 5.117188 6.890625 4.96875 6.1875 5.25C5.484375 5.53125 4.894531 6.039063 4.03125 6.75C4.019531 6.75 4.011719 6.75 4 6.75L0.34375 9.96875C0.125 10.15625 0 10.429688 0 10.71875L0 20C0 20.550781 0.449219 21 1 21L5.59375 21C6.914063 21 7.941406 20.824219 8.78125 20.5C8.820313 20.734375 8.890625 20.949219 9.03125 21.125C9.375 21.550781 9.871094 21.609375 10.15625 21.625C10.695313 21.652344 11.125 21.527344 11.5 21.34375C11.546875 21.542969 11.613281 21.738281 11.75 21.9375C11.964844 22.25 12.339844 22.523438 12.78125 22.625C13.679688 22.832031 14.433594 22.328125 14.875 21.90625C15.261719 21.539063 15.445313 21.1875 15.5 21.09375C15.722656 21.335938 16.039063 21.539063 16.40625 21.625C17.304688 21.832031 18.027344 21.328125 18.46875 20.90625C18.910156 20.484375 19.1875 20.03125 19.1875 20.03125C19.1875 20.019531 19.1875 20.011719 19.1875 20L20.5625 17.40625C20.632813 17.28125 20.664063 17.140625 20.65625 17L23 17C24.65625 17 26 15.65625 26 14L26 7C26 5.34375 24.65625 4 23 4 Z M 11 6L23 6C23.550781 6 24 6.449219 24 7L10 7C10 6.449219 10.449219 6 11 6 Z M 7.125 7.0625C7.1875 7.074219 7.277344 7.125 7.46875 7.21875C7.628906 7.320313 7.8125 7.375 8 7.375L8 12.71875L6.90625 13.3125C6.546875 13.453125 6.296875 13.785156 6.269531 14.171875C6.242188 14.558594 6.4375 14.925781 6.773438 15.117188C7.113281 15.304688 7.527344 15.285156 7.84375 15.0625L11.4375 13.15625C12.167969 12.765625 12.894531 12.449219 13.40625 12.34375C13.917969 12.238281 13.984375 12.253906 14.125 12.4375C14.3125 12.683594 14.289063 12.695313 14.125 13.03125C13.960938 13.367188 13.546875 13.867188 13.03125 14.34375L11.375 15.84375L11.375 15.8125C10.28125 16.742188 9.664063 17.605469 8.96875 18.125C8.273438 18.644531 7.480469 19 5.59375 19L2 19L2 11.15625L5.3125 8.25L5.3125 8.28125C6.152344 7.585938 6.671875 7.21875 6.90625 7.125C7.023438 7.078125 7.0625 7.050781 7.125 7.0625 Z M 10 10L24 10L24 14C24 14.550781 23.550781 15 23 15L15.1875 15C15.472656 14.667969 15.738281 14.316406 15.9375 13.90625C16.308594 13.144531 16.335938 12.035156 15.71875 11.21875C15.050781 10.339844 13.898438 10.191406 13 10.375C12.101563 10.558594 11.253906 10.988281 10.46875 11.40625L10 11.65625 Z M 14.4375 17L16 17L15.71875 17.5625C15.679688 17.609375 15.648438 17.664063 15.625 17.71875L14.3125 20.28125L14.28125 20.3125C14.261719 20.34375 14.101563 20.59375 13.84375 20.84375C13.566406 21.109375 13.308594 21.230469 13.125 21.1875C13.015625 21.160156 13 21.140625 12.96875 21.09375C12.9375 21.046875 12.921875 20.945313 12.90625 20.8125C12.875 20.578125 12.898438 20.367188 12.90625 20.3125L14.34375 17.40625C14.414063 17.28125 14.445313 17.140625 14.4375 17 Z M 17.5625 17L19.09375 17L17.90625 19.28125L17.875 19.3125C17.855469 19.34375 17.695313 19.59375 17.4375 19.84375C17.160156 20.109375 16.902344 20.230469 16.71875 20.1875C16.609375 20.160156 16.625 20.140625 16.59375 20.09375C16.5625 20.046875 16.515625 19.945313 16.5 19.8125C16.46875 19.5625 16.527344 19.308594 16.53125 19.28125C16.53125 19.28125 16.53125 19.25 16.53125 19.25L16.9375 18.40625C16.960938 18.367188 16.984375 18.324219 17 18.28125L17.46875 17.375C17.53125 17.261719 17.566406 17.132813 17.5625 17 Z M 12.6875 17.34375L11.53125 19.78125C11.519531 19.800781 11.507813 19.824219 11.5 19.84375C11.265625 20.09375 10.855469 20.378906 10.21875 20.34375C10.035156 20.332031 10.015625 20.292969 10.03125 20.3125C10.046875 20.328125 9.957031 20.226563 10.03125 19.8125C10.078125 19.777344 10.140625 19.753906 10.1875 19.71875C11.203125 18.957031 11.796875 18.097656 12.6875 17.34375Z" fill="#000" /></svg>