<svg xmlns="http://www.w3.org/2000/svg" viewBox="0 0 26 26"><path d="M13.0625 3.0625C12.863281 3.0625 12.648438 3.085938 12.5 3.1875L6.5 7.1875C6.199219 7.386719 6 7.699219 6 8L6 9.4375L0.5 13.09375C0.199219 13.394531 0 13.699219 0 14L0 21C0 21.601563 0.398438 22 1 22L8 22C8.601563 22 9 21.601563 9 21L9 16L17 16L17 21C17 21.601563 17.398438 22 18 22L25 22C25.601563 22 26 21.601563 26 21L26 14C26 13.699219 25.792969 13.386719 25.59375 13.1875L20 9.46875L20 8C20 7.699219 19.792969 7.386719 19.59375 7.1875L13.59375 3.1875C13.445313 3.085938 13.261719 3.0625 13.0625 3.0625 Z M 12 8L14 8L14 11L12 11Z" fill="#000" /></svg>