<svg xmlns="http://www.w3.org/2000/svg" viewBox="0 0 26 26">
  <path d="M5 0C4.445313 0 4 0.449219 4 1L4 12C4 12.550781 4.445313 13 5 13L21 13C21.554688 13 22 12.550781 22 12L22 1C22 0.449219 21.554688 0 21 0 Z M 10 2L16 2C16.554688 2 17 2.449219 17 3C17 3.550781 16.554688 4 16 4L10 4C9.445313 4 9 3.550781 9 3C9 2.449219 9.445313 2 10 2 Z M 6.03125 15.3125C5.601563 15.351563 5.121094 15.46875 4.5625 15.6875C3.152344 16.246094 0.0625 17.6875 0.0625 17.6875L2.90625 23.96875L4.375 23.03125C5.175781 22.519531 5.621094 22.433594 6.65625 22.96875C7.660156 23.484375 10.730469 25.09375 11.5 25.46875C13.867188 26.617188 14.886719 25.597656 16.03125 24.9375C17.007813 24.375 23.929688 19.792969 24.65625 19.28125C25.792969 18.480469 26.140625 17.765625 25.625 17.09375C25.234375 16.585938 24.34375 16.164063 22.5625 17.21875C22.726563 16.480469 22.164063 16.03125 21.46875 16.03125C20.855469 16.03125 20.132813 16.171875 19.5625 16.75C18.742188 15.671875 17.894531 15.824219 16.25 16.84375C15.625 17.234375 15.066406 17.550781 14.65625 17.78125C14.546875 17.84375 14.464844 17.890625 14.375 17.9375C14.535156 17.972656 14.695313 18 14.875 18C17.179688 18 19 18 19 20C19 21.535156 17.226563 21.980469 16.28125 22L12 22C10.238281 22 8.53125 20.15625 8.53125 20.15625C8.53125 20.15625 10.550781 21 12 21L16.25 21C16.257813 21 18 20.929688 18 20C18 19.148438 17.53125 19 14.875 19C13.140625 19 11.375 17.96875 11.375 17.96875C11.375 17.96875 9.632813 16.679688 9.09375 16.34375C8.136719 15.746094 7.316406 15.191406 6.03125 15.3125Z" fill="#FFFFFF" />
</svg>