<svg xmlns="http://www.w3.org/2000/svg" viewBox="0 0 26 26"><path d="M3 1C1.35 1 0 2.35 0 4L0 7L0 11C0 12.65 1.35 14 3 14L6.0996094 14C6.2496094 13.26 6.56 12.58 7 12L3 12C2.45 12 2 11.55 2 11L2 7L16 7L16 10L18 10L18 4C18 2.35 16.65 1 15 1L3 1 z M 25.40625 1.0019531C25.3125 1.0080781 25.225391 1.0315781 25.150391 1.0800781C23.100391 2.4390781 21.149609 4.5768281 21.099609 4.6738281C21.049609 4.7708281 21 4.9166719 21 5.0136719C21 5.1106719 21.049609 5.2576406 21.099609 5.3066406C21.149609 5.4036406 23.050391 7.5384375 25.150391 8.8984375C25.350391 8.9954375 25.549219 9.0442656 25.699219 8.9472656C25.899219 8.8502656 26 8.7037656 26 8.5097656L26 6.7128906L26 3.3144531L26 1.5175781C26 1.3235781 25.899219 1.17725 25.699219 1.03125C25.599219 1.00725 25.5 0.99582813 25.40625 1.0019531 z M 3 3L15 3C15.55 3 16 3.45 16 4L2 4C2 3.45 2.45 3 3 3 z M 11 12C9.3550302 12 8 13.35503 8 15L8 18L8 22C8 23.64497 9.3550302 25 11 25L23 25C24.64497 25 26 23.64497 26 22L26 15C26 13.35503 24.64497 12 23 12L11 12 z M 11 14L23 14C23.56503 14 24 14.43497 24 15L10 15C10 14.43497 10.43497 14 11 14 z M 0.59375 17.001953C0.5 16.995828 0.40078125 17.00675 0.30078125 17.03125C0.10078125 17.17725 -3.7007434e-17 17.323578 0 17.517578L0 19.314453L0 22.712891L0 24.509766C0 24.703766 0.10078125 24.850266 0.30078125 24.947266C0.45078125 25.044266 0.64960938 24.995438 0.84960938 24.898438C2.9496094 23.538438 4.8503906 21.403641 4.9003906 21.306641C4.9503906 21.257641 5 21.110672 5 21.013672C5 20.916672 4.9503906 20.770828 4.9003906 20.673828C4.8503906 20.576828 2.8996094 18.439078 0.84960938 17.080078C0.77460937 17.031078 0.6875 17.008078 0.59375 17.001953 z M 10 18L24 18L24 22C24 22.56503 23.56503 23 23 23L11 23C10.43497 23 10 22.56503 10 22L10 18 z" fill="#000" /></svg>