<svg xmlns="http://www.w3.org/2000/svg" viewBox="0 0 50 50">
  <path d="M9 1C6.243 1 4 3.243 4 6L4 19.412109C4 21.315109 4.6707813 23.168875 5.9257812 24.671875L15 34.394531L15 46C15 46.553 15.447 47 16 47L35 47L35 38C35 37.447 35.447 37 36 37C36.553 37 37 37.447 37 38L37 47L42 47C42.553 47 43 46.553 43 46L43 36.53125C43 30.91925 39.49175 27 34.46875 27L22.414062 27L14 18.585938L14 6C14 3.243 11.757 1 9 1 z M 28.017578 5 A 10 10 0 0 0 28.017578 25 A 10 10 0 0 0 28.017578 5 z" fill="#FFFFFF" />
</svg>