<svg xmlns="http://www.w3.org/2000/svg" viewBox="0 0 26 26">
    <path d="M0.8125 0C0.363281 0 0 0.363281 0 0.8125L0 8.0625C0 8.390625 0.195313 8.6875 0.5 8.8125C0.800781 8.9375 1.144531 8.855469 1.375 8.625L3.78125 6.21875L7.34375 9.78125C7.566406 10.003906 7.933594 10.003906 8.15625 9.78125L9.78125 8.15625C10.003906 7.9375 10 7.5625 9.78125 7.34375L6.21875 3.78125L8.625 1.375C8.777344 1.21875 8.875 1.023438 8.875 0.8125C8.875 0.707031 8.855469 0.601563 8.8125 0.5C8.6875 0.199219 8.390625 0 8.0625 0 Z M 17.9375 0C17.609375 0 17.3125 0.195313 17.1875 0.5C17.0625 0.800781 17.144531 1.144531 17.375 1.375L19.78125 3.78125L16.21875 7.34375C15.996094 7.566406 15.996094 7.933594 16.21875 8.15625L17.84375 9.78125C18.066406 10.003906 18.433594 10.003906 18.65625 9.78125L22.21875 6.21875L24.625 8.625C24.78125 8.777344 24.976563 8.875 25.1875 8.875C25.292969 8.875 25.398438 8.855469 25.5 8.8125C25.800781 8.6875 26 8.390625 26 8.0625L26 0.8125C26 0.363281 25.636719 0 25.1875 0 Z M 7.75 16.0625C7.605469 16.0625 7.453125 16.109375 7.34375 16.21875L3.78125 19.78125L1.375 17.375C1.21875 17.222656 1.023438 17.125 0.8125 17.125C0.707031 17.125 0.601563 17.144531 0.5 17.1875C0.199219 17.3125 0 17.609375 0 17.9375L0 25.1875C0 25.636719 0.367188 26 0.8125 26L8.0625 26C8.390625 26 8.6875 25.804688 8.8125 25.5C8.9375 25.199219 8.855469 24.855469 8.625 24.625L6.21875 22.21875L9.75 18.65625C9.972656 18.433594 9.972656 18.066406 9.75 17.84375L8.15625 16.25C8.046875 16.140625 7.894531 16.0625 7.75 16.0625 Z M 18.25 16.0625C18.105469 16.0625 17.957031 16.109375 17.84375 16.21875L16.25 17.84375C16.027344 18.066406 15.996094 18.433594 16.21875 18.65625L19.78125 22.21875L17.375 24.625C17.222656 24.78125 17.125 24.976563 17.125 25.1875C17.125 25.292969 17.144531 25.398438 17.1875 25.5C17.3125 25.800781 17.609375 26 17.9375 26L25.1875 26C25.636719 26 26 25.636719 26 25.1875L26 17.9375C26 17.609375 25.804688 17.3125 25.5 17.1875C25.199219 17.0625 24.855469 17.144531 24.625 17.375L22.21875 19.78125L18.65625 16.21875C18.546875 16.109375 18.394531 16.0625 18.25 16.0625Z"/>
</svg>