<svg xmlns="http://www.w3.org/2000/svg" viewBox="0 0 26 26"><path d="M7 0C6.398438 0 6 0.398438 6 1L6 4C6 4.601563 6.398438 5 7 5C7.601563 5 8 4.601563 8 4L8 1C8 0.398438 7.601563 0 7 0 Z M 19 0C18.398438 0 18 0.398438 18 1L18 4C18 4.601563 18.398438 5 19 5C19.601563 5 20 4.601563 20 4L20 1C20 0.398438 19.601563 0 19 0 Z M 3 2C1.300781 2 0 3.300781 0 5L0 23C0 24.699219 1.300781 26 3 26L23 26C24.699219 26 26 24.699219 26 23L26 5C26 3.300781 24.699219 2 23 2L21 2L21 4C21 5.101563 20.101563 6 19 6C17.898438 6 17 5.101563 17 4L17 2L9 2L9 4C9 5.101563 8.101563 6 7 6C5.898438 6 5 5.101563 5 4L5 2 Z M 2 9L24 9L24 23C24 23.601563 23.601563 24 23 24L3 24C2.398438 24 2 23.601563 2 23 Z M 19.5 12.40625L19.5 15.09375C19.398438 14.695313 19.09375 14.5 18.59375 14.5C17.695313 14.5 16.90625 15.414063 16.90625 17.3125C16.90625 18.8125 17.492188 20.09375 18.59375 20.09375C19.09375 20.09375 19.488281 19.804688 19.6875 19.40625L19.8125 20L21 20L21 12.40625 Z M 13.6875 13.09375L12.09375 13.90625L12.3125 15L13.59375 14.40625L13.59375 20.09375L15 20.09375L15 13.09375 Z M 6 14L6 16L4 16L4 18L6 18L6 20L8 20L8 18L10 18L10 16L8 16L8 14 Z M 19.09375 15.8125C19.394531 15.8125 19.59375 16.105469 19.59375 16.40625L19.59375 18.5C19.492188 18.898438 19.292969 19 19.09375 19C18.695313 19 18.40625 18.40625 18.40625 17.40625C18.40625 16.507813 18.59375 15.8125 19.09375 15.8125Z"/></svg>
