<svg xmlns="http://www.w3.org/2000/svg" viewBox="0 0 26 26"><path d="M7 0C6.398438 0 6 0.398438 6 1L6 4C6 4.601563 6.398438 5 7 5C7.601563 5 8 4.601563 8 4L8 1C8 0.398438 7.601563 0 7 0 Z M 19 0C18.398438 0 18 0.398438 18 1L18 4C18 4.601563 18.398438 5 19 5C19.601563 5 20 4.601563 20 4L20 1C20 0.398438 19.601563 0 19 0 Z M 3 2C1.300781 2 0 3.300781 0 5L0 23C0 24.699219 1.300781 26 3 26L23 26C24.699219 26 26 24.699219 26 23L26 5C26 3.300781 24.699219 2 23 2L21 2L21 4C21 5.101563 20.101563 6 19 6C17.898438 6 17 5.101563 17 4L17 2L9 2L9 4C9 5.101563 8.101563 6 7 6C5.898438 6 5 5.101563 5 4L5 2 Z M 2 9L24 9L24 23C24 23.601563 23.601563 24 23 24L3 24C2.398438 24 2 23.601563 2 23 Z M 11.6875 13.09375L10.09375 13.90625L10.3125 15L11.59375 14.40625L11.59375 20.09375L13 20.09375L13 13.09375 Z M 6 14L6 16L4 16L4 18L6 18L6 20L8 20L8 18L10 18L10 16L8 16L8 14 Z M 17.8125 14C17.210938 14 16.707031 14.414063 16.40625 14.8125L16.3125 14.09375L15 14.09375L15 20L16.5 20L16.5 16.1875C16.5 16.085938 16.59375 15.914063 16.59375 15.8125C16.695313 15.511719 16.988281 15.3125 17.1875 15.3125C17.6875 15.3125 17.6875 15.914063 17.6875 16.3125L17.6875 20L19.3125 20L19.3125 15.8125C19.414063 15.511719 19.605469 15.3125 19.90625 15.3125C20.304688 15.3125 20.40625 15.800781 20.40625 16.5L20.40625 20L22 20L22 16.3125C22 14.8125 21.601563 14 20.5 14C20.199219 14 19.886719 14.085938 19.6875 14.1875C19.488281 14.386719 19.195313 14.613281 19.09375 14.8125C18.894531 14.3125 18.511719 14 17.8125 14Z"/></svg>