<svg xmlns="http://www.w3.org/2000/svg" viewBox="0 0 26 26"><path d="M7 0C6.398438 0 6 0.398438 6 1L6 4C6 4.601563 6.398438 5 7 5C7.601563 5 8 4.601563 8 4L8 1C8 0.398438 7.601563 0 7 0 Z M 19 0C18.398438 0 18 0.398438 18 1L18 4C18 4.601563 18.398438 5 19 5C19.601563 5 20 4.601563 20 4L20 1C20 0.398438 19.601563 0 19 0 Z M 3 2C1.300781 2 0 3.300781 0 5L0 23C0 24.699219 1.300781 26 3 26L23 26C24.699219 26 26 24.699219 26 23L26 5C26 3.300781 24.699219 2 23 2L21 2L21 4C21 5.101563 20.101563 6 19 6C17.898438 6 17 5.101563 17 4L17 2L9 2L9 4C9 5.101563 8.101563 6 7 6C5.898438 6 5 5.101563 5 4L5 2 Z M 2 9L24 9L24 23C24 23.601563 23.601563 24 23 24L3 24C2.398438 24 2 23.601563 2 23 Z M 13.6875 13.09375L12.09375 13.90625L12.3125 15L13.59375 14.40625L13.59375 20.09375L15 20.09375L15 13.09375 Z M 6 14L6 16L4 16L4 18L6 18L6 20L8 20L8 18L10 18L10 16L8 16L8 14 Z M 19.59375 14L19.09375 16.8125C19.09375 17.113281 19 17.386719 19 17.6875C18.898438 17.386719 18.914063 17.113281 18.8125 16.8125L18.3125 14.09375L16.8125 14.09375L18.3125 19.09375L18.3125 19.3125C18.3125 19.3125 18.1875 19.398438 18.1875 19.5C18.085938 19.699219 17.886719 19.894531 17.6875 20.09375C17.488281 20.292969 17.199219 20.398438 17 20.5L17.5 21.6875C17.699219 21.6875 18.1875 21.40625 18.6875 20.90625C19.289063 20.304688 19.605469 19.1875 19.90625 18.1875L21 14Z" /></svg>